<?xml version="1.0" standalone="no"?>
<!DOCTYPE svg PUBLIC "-//W3C//DTD SVG 20010904//EN"
 "http://www.w3.org/TR/2001/REC-SVG-20010904/DTD/svg10.dtd">
<svg version="1.0" xmlns="http://www.w3.org/2000/svg"
 width="700.000000pt" height="700.000000pt" viewBox="0 0 700.000000 700.000000"
 preserveAspectRatio="xMidYMid meet">
<metadata>
Created by potrace 1.14, written by Peter Selinger 2001-2017
</metadata>
<g transform="translate(0.000000,700.000000) scale(0.100000,-0.100000)"
fill="#000000" stroke="none">
<path d="M865 6701 c-151 -4 -240 -11 -259 -19 -56 -24 -124 -82 -162 -138
l-39 -56 -7 -282 c-3 -154 -7 -1442 -7 -2862 -1 -1420 -4 -2615 -7 -2656 -6
-63 -10 -76 -28 -84 -50 -22 8 -149 96 -210 39 -27 49 -29 182 -36 223 -11
1239 -9 1360 2 112 11 158 26 176 59 5 11 10 61 10 112 0 83 -2 91 -14 73 -14
-18 -33 -19 -688 -19 -740 0 -756 1 -803 56 -69 83 -69 106 -68 2999 2 2441 6
2827 33 2922 21 73 -8 70 755 79 1576 18 4781 3 4860 -23 59 -19 72 -54 87
-233 19 -221 19 -5335 0 -5517 -15 -145 -33 -217 -62 -243 -32 -29 -144 -34
-850 -41 -457 -5 -647 -10 -652 -18 -4 -6 -8 -29 -8 -52 0 -37 -15 -98 -35
-147 -7 -16 24 -17 561 -17 313 1 679 5 814 9 234 8 248 10 295 34 57 29 117
83 142 130 17 30 18 172 17 2622 -1 1425 -6 2759 -11 2967 l-10 376 -26 45
c-15 25 -49 65 -77 90 -46 41 -55 45 -117 51 -210 20 -4894 43 -5458 27z
m5656 -6139 c-51 -100 -129 -143 -271 -148 l-95 -3 77 9 c155 18 202 42 263
137 43 66 59 69 26 5z m-6105 -37 c44 -70 108 -97 237 -102 56 -2 118 -7 137
-10 33 -6 34 -6 10 -13 -80 -24 -240 1 -328 51 -49 28 -92 77 -92 107 0 20 5
15 36 -33z"/>
<path d="M5353 6374 c-166 -232 -342 -344 -718 -454 -287 -84 -342 -102 -430
-145 -49 -24 -117 -65 -149 -92 -61 -50 -154 -159 -144 -169 4 -3 23 6 45 20
99 65 276 100 498 101 149 0 180 -3 253 -24 99 -28 112 -43 112 -124 0 -71 11
-94 55 -113 74 -31 109 -15 244 105 80 71 191 195 191 212 0 6 -16 -1 -35 -15
-20 -15 -55 -36 -78 -46 -48 -21 -157 -38 -157 -24 0 5 35 24 78 43 63 28 92
49 157 116 52 52 93 105 117 150 37 70 93 244 86 266 -2 7 -30 -31 -61 -82
-62 -103 -85 -135 -91 -128 -2 2 9 54 24 114 37 146 82 364 77 378 -1 5 -35
-35 -74 -89z"/>
<path d="M1535 6388 c10 -88 32 -190 64 -298 17 -56 31 -107 31 -113 0 -21
-34 21 -78 96 -65 112 -74 113 -46 3 22 -85 83 -211 133 -274 55 -69 118 -114
214 -153 42 -17 77 -35 77 -40 0 -14 -65 -10 -117 7 -26 9 -69 29 -94 45 -25
16 -49 29 -53 29 -31 0 299 -316 341 -326 18 -5 43 1 79 19 l54 27 0 64 c0 82
5 93 49 116 174 88 498 73 774 -37 48 -20 90 -33 93 -30 9 9 -80 120 -133 167
-101 89 -204 130 -541 220 -488 129 -625 210 -797 473 -21 31 -42 57 -47 57
-5 0 -6 -24 -3 -52z"/>
<path d="M3205 6234 c-16 -2 -73 -9 -125 -15 -240 -27 -830 -169 -830 -199 0
-26 114 -9 374 56 354 87 580 117 881 117 314 -1 532 -34 890 -135 99 -28 200
-52 225 -52 57 0 106 12 94 24 -12 11 -493 134 -625 159 -187 36 -383 51 -626
50 -125 -1 -241 -4 -258 -5z"/>
<path d="M3320 6143 c-142 -9 -282 -28 -410 -53 -152 -31 -396 -93 -407 -104
-13 -13 15 -24 127 -51 172 -41 335 -92 416 -129 108 -50 181 -104 319 -237
88 -84 132 -119 146 -117 11 2 48 37 82 78 154 184 334 279 727 386 96 26 179
50 183 54 10 8 -166 63 -309 95 -271 62 -637 95 -874 78z"/>
<path d="M2445 5505 c-96 -18 -192 -56 -309 -122 -117 -67 -172 -83 -286 -83
-115 0 -120 -4 -131 -114 -6 -64 -17 -104 -39 -150 -82 -169 -112 -568 -65
-853 29 -180 46 -215 232 -488 184 -269 233 -418 233 -710 0 -175 -9 -270 -62
-635 -66 -460 -56 -696 37 -928 44 -107 98 -199 177 -299 86 -109 254 -273
279 -273 12 0 45 22 74 48 138 126 260 122 365 -14 46 -58 47 -59 106 -64 33
-3 72 -13 86 -22 40 -27 81 -81 103 -140 l21 -53 173 -3 c94 -1 189 2 210 8
33 9 40 16 60 65 37 88 117 145 207 145 25 0 45 14 105 73 57 57 85 76 122 86
88 25 168 -5 232 -87 22 -28 47 -51 56 -51 24 -1 243 230 318 335 111 157 181
318 212 494 17 94 17 391 1 520 -7 52 -26 178 -42 280 -50 315 -63 449 -57
615 7 185 21 245 97 400 44 89 93 164 189 292 211 280 226 329 225 718 0 314
-26 484 -85 564 -12 17 -23 57 -30 110 -5 46 -14 92 -20 102 -10 20 -44 26
-192 33 -92 4 -102 7 -170 46 -221 126 -313 153 -522 154 -170 1 -230 -11
-352 -70 -89 -42 -185 -130 -232 -210 -19 -33 -41 -69 -48 -82 l-14 -23 -29
25 c-24 20 -45 25 -115 31 -125 11 -253 -2 -268 -26 -21 -33 -41 -21 -87 52
-150 236 -462 360 -765 304z m327 -144 c160 -41 277 -128 317 -236 12 -31 21
-58 21 -60 0 -16 -36 2 -101 51 -91 69 -250 147 -353 174 -99 25 -254 37 -284
21 -15 -8 -22 -24 -27 -59 -12 -98 -16 -112 -30 -112 -26 0 -135 53 -135 66 0
35 154 132 251 158 81 22 250 20 341 -3z m1694 8 c88 -15 205 -56 257 -89 74
-47 74 -96 0 -127 -61 -25 -69 -20 -88 55 -10 37 -24 78 -33 91 -14 23 -17 24
-116 18 -201 -11 -394 -82 -536 -196 -41 -33 -78 -61 -82 -61 -15 0 -8 37 18
88 43 87 164 178 289 218 49 16 211 18 291 3z m-2567 -342 c6 -8 20 -83 30
-168 55 -426 192 -616 497 -690 114 -28 288 -30 384 -5 134 36 252 111 327
211 83 109 117 207 132 384 8 99 10 106 39 132 36 33 108 44 218 36 87 -6 138
-29 152 -65 6 -15 13 -68 16 -118 21 -302 176 -497 456 -571 90 -24 328 -23
424 0 278 69 413 259 471 665 17 116 29 170 41 183 21 24 77 25 95 2 19 -22
25 -273 10 -398 -45 -379 -296 -739 -604 -867 -40 -17 -79 -37 -89 -45 -9 -8
-32 -61 -51 -117 -132 -381 -415 -890 -671 -1206 -82 -102 -268 -290 -285
-290 -23 0 -176 163 -307 326 -207 258 -310 418 -475 739 -107 209 -153 312
-202 454 l-32 94 -115 64 c-133 74 -200 123 -280 203 -212 212 -317 529 -295
894 9 155 13 166 64 166 21 0 44 -6 50 -13z m2997 -22 c14 -22 16 -41 10 -117
-12 -152 -33 -245 -81 -344 -73 -152 -193 -242 -367 -278 -345 -71 -595 132
-625 505 -9 112 11 116 90 18 30 -36 66 -67 108 -90 58 -31 72 -34 144 -34 94
0 148 21 215 81 43 39 100 141 100 180 0 41 21 53 115 64 50 6 113 17 140 24
28 8 69 15 92 15 35 1 45 -4 59 -24z m-2657 0 c47 -8 115 -18 151 -22 l65 -8
13 -45 c26 -89 56 -142 109 -190 61 -56 123 -80 204 -80 113 0 196 48 265 152
25 37 49 68 54 68 24 0 18 -176 -10 -282 -20 -73 -80 -175 -131 -223 -92 -86
-242 -134 -374 -120 -264 29 -422 159 -480 396 -17 67 -32 325 -22 353 8 20
43 20 156 1z m352 -1945 c10 -6 19 -17 19 -25 0 -33 -77 -47 -101 -19 -11 14
-10 19 10 35 26 22 44 24 72 9z m1864 -14 c19 -14 19 -15 1 -35 -23 -25 -58
-27 -81 -4 -16 16 -16 18 5 35 27 22 50 23 75 4z m-1869 -103 c4 -10 10 -302
13 -650 3 -347 10 -635 14 -640 5 -4 186 -12 402 -18 277 -7 398 -14 406 -22
18 -18 2 -62 -27 -73 -15 -6 -181 -10 -392 -10 -330 0 -371 2 -402 18 -52 26
-71 67 -81 180 -10 116 0 1177 12 1210 10 26 44 29 55 5z m1846 -34 c39 -182
37 -1220 -2 -1324 -18 -48 -31 -50 -420 -53 -383 -4 -461 0 -485 24 -19 19 -1
63 29 69 12 2 190 7 396 10 206 3 383 8 392 11 9 3 19 17 22 32 3 15 8 297 11
627 4 330 11 610 16 623 12 32 32 23 41 -19z"/>
<path d="M3428 4779 c-24 -13 -77 -112 -139 -254 -46 -108 -51 -125 -46 -175
13 -148 189 -550 241 -550 15 0 93 138 169 300 72 151 91 212 83 261 -11 66
-162 393 -193 417 -20 14 -91 16 -115 1z m103 -95 c20 -21 24 -38 27 -99 6
-111 -32 -396 -58 -445 -22 -40 -49 111 -57 321 -6 169 -3 199 27 229 26 26
32 25 61 -6z"/>
<path d="M6913 5334 c-23 -9 -55 -30 -72 -49 -26 -30 -30 -43 -38 -132 -11
-134 -8 -2514 4 -2686 8 -121 12 -140 31 -159 16 -16 25 -19 33 -11 7 7 3 16
-15 31 l-26 20 0 1338 c1 757 5 1385 10 1444 11 119 24 146 84 167 46 15 68
32 60 44 -7 12 -21 10 -71 -7z"/>
<path d="M2 5219 c2 -8 27 -21 54 -30 64 -20 73 -40 84 -187 5 -64 10 -738 11
-1497 1 -955 5 -1338 11 -1245 12 164 16 2820 5 2871 -5 27 -18 44 -46 64 -45
31 -127 47 -119 24z"/>
<path d="M1462 3989 c-311 -154 -480 -1160 -306 -1833 107 -416 422 -846 718
-982 57 -26 162 -51 173 -41 3 4 -17 27 -45 52 -172 155 -224 366 -166 680 9
44 40 184 69 310 186 793 162 1074 -125 1510 -128 194 -234 325 -264 325 -6 0
-30 -10 -54 -21z"/>
<path d="M5405 3972 c-42 -26 -163 -158 -248 -271 -291 -386 -306 -728 -70
-1641 68 -268 79 -392 44 -530 -27 -111 -77 -209 -157 -306 -35 -43 -64 -85
-64 -93 0 -19 46 -9 139 32 351 152 639 571 771 1122 43 181 60 311 67 510 11
348 -43 637 -166 890 -89 182 -194 305 -260 305 -14 0 -39 -8 -56 -18z"/>
<path d="M4548 833 c6 -2 18 -2 25 0 6 3 1 5 -13 5 -14 0 -19 -2 -12 -5z"/>
<path d="M2256 770 c-32 -36 -42 -50 -33 -50 1 0 20 20 40 45 47 56 42 59 -7
5z"/>
<path d="M2395 791 c-112 -28 -167 -115 -168 -266 -1 -100 28 -201 81 -280 35
-52 113 -125 133 -125 5 0 9 36 9 79 0 61 3 80 15 85 24 9 18 25 -36 84 -126
140 -136 256 -34 370 59 65 59 67 0 53z"/>
<path d="M4520 785 c-13 -16 -11 -20 36 -82 44 -58 61 -136 45 -205 -12 -56
-55 -129 -96 -168 -29 -27 -31 -37 -10 -60 8 -9 17 -47 21 -88 4 -40 10 -72
14 -72 4 0 30 25 59 55 153 162 186 449 65 569 -28 27 -94 66 -112 66 -5 0
-15 -7 -22 -15z"/>
<path d="M4683 774 c10 -12 34 -50 53 -85 19 -35 32 -53 29 -39 -10 37 -50
102 -76 125 l-24 20 18 -21z"/>
<path d="M3070 758 c0 -13 9 -52 20 -88 23 -76 26 -157 6 -203 -7 -18 -41 -63
-76 -101 -40 -44 -58 -71 -50 -76 13 -8 40 -93 40 -127 0 -36 24 -28 72 26
157 175 182 446 52 561 -41 36 -64 39 -64 8z"/>
<path d="M3821 754 c-53 -45 -74 -97 -79 -200 -5 -107 8 -178 49 -265 39 -82
75 -129 100 -129 15 0 19 7 19 30 0 34 25 90 40 90 17 0 11 16 -26 70 -86 125
-103 209 -63 315 21 57 22 106 3 112 -6 2 -26 -8 -43 -23z"/>
<path d="M2688 733 c-76 -86 -110 -301 -73 -461 21 -91 93 -227 120 -227 16 0
25 15 45 77 27 83 47 104 36 38 -3 -22 -9 -58 -12 -80 -5 -33 -4 -40 9 -40 9
0 21 9 27 19 23 44 3 337 -35 523 -29 136 -76 197 -117 151z"/>
<path d="M4186 718 c-55 -85 -106 -297 -113 -473 -3 -66 -1 -138 4 -160 9 -39
10 -40 57 -43 46 -3 48 -2 43 20 -4 13 -3 37 2 53 l8 30 8 -28 c4 -15 10 -27
14 -27 4 0 21 30 39 66 18 37 35 64 38 62 2 -3 -9 -39 -26 -81 -16 -41 -30
-83 -30 -92 0 -43 61 28 80 94 39 131 25 405 -27 530 -30 72 -69 91 -97 49z"/>
<path d="M3300 553 c-37 -7 -42 -15 -55 -98 -10 -65 -9 -77 3 -88 22 -18 416
-14 439 4 21 18 10 158 -14 177 -12 8 -64 12 -182 11 -91 -1 -177 -4 -191 -6z"/>
</g>
</svg>
